# xmcd
# Copyright (C) 1995-1998 Ti Kan
#
# Track frame offsets:
#       150
#       181900
#       185222
#       204747
#       227990
#       248747
#
# Disc length: 3654 seconds
#
# Revision: 0
# Processed by: cddbd v1.5.2PL0 Copyright (c) Steve Scherf et al.
# Submitted via: CD-Import v1.0
#
DISCID=540e4406
DTITLE=Dj Silence - Electropique
DYEAR=1900
DGENRE=
TTITLE0=120112 Electropique Teil 3
TTITLE1=120112 Electropique Teil 4
TTITLE2=120112 Electropique Teil 5
TTITLE3=120112 Electropique Teil 6
TTITLE4=120112 Electropique Teil 7
TTITLE5=120112 Electropique Teil 8
EXTD=
EXTT0=
EXTT1=
EXTT2=
EXTT3=
EXTT4=
EXTT5=
PLAYORDER=
